<svg class="link-icon" xmlns="http://www.w3.org/2000/svg" viewBox="0 0 100 100">
  <path fill="currentColor" class="link-icon__bottom" d="M40,31a26.72,26.72,0,0,0-9.8,2.7c-3.31,1.69-4.44,2.66-14.2,12.4C10.68,51.4,5.8,56.42,5.16,57.27a27.14,27.14,0,0,0-.32,31.39A26.61,26.61,0,0,0,26.76,100a26.22,26.22,0,0,0,14.9-4.41c2-1.32,12.13-11.25,12.83-12.59a5.16,5.16,0,0,0-.42-4.88,5.06,5.06,0,0,0-6.19-1.72A62.15,62.15,0,0,0,42,81.78a56,56,0,0,1-6.38,5.73c-7.3,4.3-17.25,2.49-22.14-4A16.15,16.15,0,0,1,10,73.23a14.88,14.88,0,0,1,1.86-7.75L13,63.25,22.15,54C31.57,44.56,33,43.32,35.81,42.17A14.88,14.88,0,0,1,42.36,41a15.56,15.56,0,0,1,10.35,3.64c2.79,2.33,3,2.44,5,2.44,1.58,0,1.91-.07,2.73-.63a4.56,4.56,0,0,0,2.16-3.83c.11-1.83-.36-2.84-2.19-4.6a26.59,26.59,0,0,0-15.25-6.9c-1-.08-2.14-.17-2.47-.22S41.19,30.9,40,31Z"/>
  <path fill="currentColor" class="link-icon__top" d="M68.29.33a28,28,0,0,0-10,4.06C56.3,5.7,46.19,15.64,45.48,17a3.94,3.94,0,0,0-.37,2.39,4.6,4.6,0,0,0,2.42,4,5.29,5.29,0,0,0,4.6.23,69.88,69.88,0,0,0,5.72-5.26A76.79,76.79,0,0,1,64,12.7a17.57,17.57,0,0,1,10.18-2.56,15.47,15.47,0,0,1,6.67,1.76A16.15,16.15,0,0,1,90,26.74a14.9,14.9,0,0,1-1.86,7.75L87,36.72l-9.55,9.51C67.17,56.54,66.72,56.91,63,58.14c-1.66.56-2.25.63-5.16.63a13.47,13.47,0,0,1-5.05-.52,17.35,17.35,0,0,1-6.43-3.57c-1.87-1.62-2.74-2-4.62-1.83a4.69,4.69,0,0,0-4.44,4.86c0,1.67.76,3,2.61,4.65a27,27,0,0,0,32.67,2.28c2-1.29,20.37-19.44,22.22-21.93a27.05,27.05,0,0,0,.31-31.44A27.43,27.43,0,0,0,77.38.21,39,39,0,0,0,68.29.33Z"/>
</svg>
